<svg xmlns="http://www.w3.org/2000/svg" viewBox="0 0 32 32" width="32" height="32">
  <defs>
    <style>
      .tesla-coil {
        stroke: #FFBF00;
        stroke-width: 0.8;
        fill: none;
        animation: flicker 1.5s ease-in-out infinite;
      }
      
      .tesla-spark {
        stroke: #FFD700;
        stroke-width: 0.4;
        fill: none;
        opacity: 0;
        animation: spark 2s ease-in-out infinite;
      }
      
      .tesla-core {
        stroke: #FFBF00;
        stroke-width: 1;
        fill: none;
        animation: flicker 1.8s ease-in-out infinite reverse;
      }
      
      @keyframes flicker {
        0%, 100% { 
          opacity: 0.3;
          stroke-width: 0.8;
        }
        10% { 
          opacity: 1;
          stroke-width: 1.2;
        }
        15% { 
          opacity: 0.2;
          stroke-width: 0.6;
        }
        25% { 
          opacity: 0.9;
          stroke-width: 1.1;
        }
        30% { 
          opacity: 0.1;
          stroke-width: 0.5;
        }
        45% { 
          opacity: 0.8;
          stroke-width: 1;
        }
        60% { 
          opacity: 0.4;
          stroke-width: 0.7;
        }
        75% { 
          opacity: 1;
          stroke-width: 1.3;
        }
        85% { 
          opacity: 0.2;
          stroke-width: 0.6;
        }
      }
      
      @keyframes spark {
        0%, 90%, 100% { 
          opacity: 0;
        }
        5%, 15%, 25%, 35% { 
          opacity: 0.8;
        }
        10%, 20%, 30% { 
          opacity: 0;
        }
      }
      
      .bulb-glass {
        fill: #f6ebef;
        fill-opacity: 0.9;
        stroke: #ddd;
        stroke-width: 0.5;
      }
    </style>
  </defs>
  
  <!-- Light bulb glass -->
  <path d="M16 3 C21 3 24.5 6.5 24.5 11.5 C24.5 15 22 17.5 21 18.5 L21 21 L11 21 L11 18.5 C10 17.5 7.5 15 7.5 11.5 C7.5 6.5 11 3 16 3 Z" 
        class="bulb-glass"/>
  
  <!-- Bulb base/screw threads -->
  <rect x="11" y="21" width="10" height="1.5" fill="#888" rx="0.3"/>
  <rect x="11" y="22.5" width="10" height="1.5" fill="#777" rx="0.3"/>
  <rect x="11" y="24" width="10" height="1.5" fill="#666" rx="0.3"/>
  <rect x="12" y="25.5" width="8" height="2" fill="#555" rx="1"/>
  
  <!-- Tesla coil central conductor -->
  <line x1="16" y1="6" x2="16" y2="19" stroke="#FFBF00" stroke-width="0.6" class="tesla-core"/>
  
  <!-- Tesla coil spirals -->
  <path d="M14 7 Q16 6.5 18 7 Q16 7.5 14 8 Q16 8.5 18 9 Q16 9.5 14 10" class="tesla-coil"/>
  <path d="M14 10 Q16 9.5 18 10 Q16 10.5 14 11 Q16 11.5 18 12 Q16 12.5 14 13" class="tesla-coil"/>
  <path d="M14 13 Q16 12.5 18 13 Q16 13.5 14 14 Q16 14.5 18 15 Q16 15.5 14 16" class="tesla-coil"/>
  <path d="M14 16 Q16 15.5 18 16 Q16 16.5 14 17 Q16 17.5 18 18 Q16 18.5 14 19" class="tesla-coil"/>
  
  <!-- Secondary coil details -->
  <circle cx="16" cy="8" r="2.5" fill="none" stroke="#FFBF00" stroke-width="0.4" opacity="0.6" class="tesla-coil"/>
  <circle cx="16" cy="12" r="3" fill="none" stroke="#FFBF00" stroke-width="0.4" opacity="0.6" class="tesla-coil"/>
  <circle cx="16" cy="16" r="2.5" fill="none" stroke="#FFBF00" stroke-width="0.4" opacity="0.6" class="tesla-coil"/>
  
  <!-- Tesla sparks/arcs -->
  <path d="M13 9 Q11 8 12 10" class="tesla-spark"/>
  <path d="M19 11 Q21 10 20 12" class="tesla-spark"/>
  <path d="M13 15 Q11 16 12 14" class="tesla-spark"/>
  <path d="M19 17 Q21 18 20 16" class="tesla-spark"/>
  <path d="M14 12 Q12 13 13 11" class="tesla-spark"/>
  <path d="M18 14 Q20 15 19 13" class="tesla-spark"/>
  
  <!-- Top terminal -->
  <circle cx="16" cy="6" r="1" fill="#FFBF00" opacity="0.8" class="tesla-coil"/>
  <circle cx="16" cy="19" r="0.8" fill="#FFBF00" opacity="0.8" class="tesla-coil"/>
</svg>
