<svg xmlns="http://www.w3.org/2000/svg" viewBox="0 0 32 32" width="32" height="32">
  <defs>
    <style>
      .tesla-coil { stroke: #FFBF00; stroke-width: 1.5; fill: none; }
      .tesla-spark { stroke: #FFD700; stroke-width: 1; fill: none; opacity: 0.9; }
      .tesla-core { stroke: #FFBF00; stroke-width: 2; fill: none; }
      .bulb-glass { fill: #f8f8f8; fill-opacity: 0.95; stroke: #ccc; stroke-width: 0.5; }
      .bg-circle { fill: #ffffff; stroke: none; }
    </style>
  </defs>
  
  <!-- Background -->
  <circle cx="16" cy="16" r="15" class="bg-circle"/>
  
  <!-- Light bulb glass -->
  <path d="M16 4 C22 4 24 6 24 10 C24 12 22 14 22 15 L22 17 L10 17 L10 15 C10 14 8 12 8 10 C8 6 10 4 16 4 Z" 
        class="bulb-glass"/>
  
  <!-- Bulb base -->
  <rect x="10" y="17" width="12" height="2" fill="#888" rx="0.5"/>
  <rect x="10" y="19" width="12" height="2" fill="#777" rx="0.5"/>
  <rect x="11" y="21" width="10" height="3" fill="#555" rx="1.5"/>
  
  <!-- Tesla coil central conductor -->
  <line x1="16" y1="6" x2="16" y2="16" class="tesla-core"/>
  
  <!-- Tesla coil spirals -->
  <path d="M14 7 Q16 6.5 18 7 Q16 7.5 14 8 Q16 8.5 18 9 Q16 9.5 14 10" class="tesla-coil"/>
  <path d="M14 10 Q16 9.5 18 10 Q16 10.5 14 11 Q16 11.5 18 12 Q16 12.5 14 13" class="tesla-coil"/>
  <path d="M14 13 Q16 12.5 18 13 Q16 13.5 14 14 Q16 14.5 18 15 Q16 15.5 14 16" class="tesla-coil"/>
  
  <!-- Secondary coil details -->
  <circle cx="16" cy="8.5" r="3" fill="none" stroke="#FFBF00" stroke-width="1" opacity="0.7"/>
  <circle cx="16" cy="12" r="3.5" fill="none" stroke="#FFBF00" stroke-width="1" opacity="0.7"/>
  
  <!-- Tesla sparks -->
  <path d="M13 8 Q11 7 12 10" class="tesla-spark"/>
  <path d="M19 9 Q21 8 20 11" class="tesla-spark"/>
  <path d="M13 13 Q11 14 12 11" class="tesla-spark"/>
  <path d="M19 14 Q21 15 20 12" class="tesla-spark"/>
  
  <!-- Terminals -->
  <circle cx="16" cy="6" r="1.5" fill="#FFBF00"/>
  <circle cx="16" cy="16" r="1" fill="#FFBF00"/>
</svg>