<svg xmlns="http://www.w3.org/2000/svg" viewBox="0 0 16 16" width="16" height="16">
  <defs>
    <style>
      .tesla-coil { stroke: #FFBF00; stroke-width: 0.8; fill: none; }
      .tesla-core { stroke: #FFBF00; stroke-width: 1; fill: none; }
      .bulb-glass { fill: #f8f8f8; fill-opacity: 0.95; stroke: #ccc; stroke-width: 0.3; }
      .bg-circle { fill: #ffffff; stroke: none; }
    </style>
  </defs>
  
  <!-- Background -->
  <circle cx="8" cy="8" r="7.5" class="bg-circle"/>
  
  <!-- Light bulb glass -->
  <path d="M8 2 C11 2 12 3 12 5 C12 6 11 7 11 7.5 L11 8.5 L5 8.5 L5 7.5 C5 7 4 6 4 5 C4 3 5 2 8 2 Z" 
        class="bulb-glass"/>
  
  <!-- Bulb base -->
  <rect x="5" y="8.5" width="6" height="1" fill="#888" rx="0.3"/>
  <rect x="5" y="9.5" width="6" height="1" fill="#777" rx="0.3"/>
  <rect x="5.5" y="10.5" width="5" height="1.5" fill="#555" rx="0.8"/>
  
  <!-- Tesla coil central conductor -->
  <line x1="8" y1="3" x2="8" y2="8" class="tesla-core"/>
  
  <!-- Tesla coil spirals -->
  <path d="M7 3.5 Q8 3.2 9 3.5 Q8 3.8 7 4 Q8 4.2 9 4.5 Q8 4.8 7 5" class="tesla-coil"/>
  <path d="M7 5 Q8 4.8 9 5 Q8 5.2 7 5.5 Q8 5.8 9 6 Q8 6.2 7 6.5" class="tesla-coil"/>
  <path d="M7 6.5 Q8 6.2 9 6.5 Q8 6.8 7 7 Q8 7.2 9 7.5 Q8 7.8 7 8" class="tesla-coil"/>
  
  <!-- Secondary coil details -->
  <circle cx="8" cy="4.2" r="1.5" fill="none" stroke="#FFBF00" stroke-width="0.5" opacity="0.7"/>
  <circle cx="8" cy="6" r="1.8" fill="none" stroke="#FFBF00" stroke-width="0.5" opacity="0.7"/>
  
  <!-- Terminals -->
  <circle cx="8" cy="3" r="0.8" fill="#FFBF00"/>
  <circle cx="8" cy="8" r="0.5" fill="#FFBF00"/>
</svg>